<svg
  width="32"
  height="32"
  viewBox="0 0 315 315"
  fill="none"
  xmlns="http://www.w3.org/2000/svg"
>
  {/* Stylized 'STUDIO' text at the bottom */}
  <path
    d="M56.202 252.698L50.373 253.481C50.025 250.465 49.242 247.855 48.024 245.651C46.806 243.447 45.269 241.62 43.413 240.17C41.557 238.72 39.411 237.647 36.975 236.951C34.539 236.255 31.9 235.907 29.058 235.907C24.766 235.907 21.286 236.632 18.618 238.082C16.008 239.532 14.703 241.881 14.703 245.129C14.703 247.101 15.341 248.667 16.617 249.827C17.893 250.929 19.575 251.857 21.663 252.611C23.751 253.307 26.129 253.887 28.797 254.351C31.523 254.815 34.278 255.337 37.062 255.917C39.846 256.439 42.572 257.135 45.24 258.005C47.966 258.817 50.373 259.977 52.461 261.485C54.549 262.935 56.231 264.82 57.507 267.14C58.783 269.402 59.421 272.273 59.421 275.753C59.421 279.233 58.812 282.249 57.594 284.801C56.434 287.353 54.752 289.47 52.548 291.152C50.344 292.834 47.705 294.081 44.631 294.893C41.557 295.705 38.135 296.111 34.365 296.111C30.537 296.111 27.202 295.676 24.36 294.806C21.576 293.994 19.082 292.863 16.878 291.413C15.834 290.717 14.848 290.369 13.92 290.369C13.514 290.369 12.876 290.804 12.006 291.674C11.136 292.486 10.469 293.501 10.005 294.719H4.176V270.881L9.918 270.359C10.15 273.143 10.875 275.666 12.093 277.928C13.311 280.19 14.906 282.133 16.878 283.757C18.908 285.323 21.315 286.57 24.099 287.498C26.883 288.368 29.957 288.803 33.321 288.803C38.251 288.803 42.021 287.846 44.631 285.932C47.241 283.96 48.546 280.886 48.546 276.71C48.546 275.376 48.14 274.245 47.328 273.317C46.516 272.389 45.414 271.635 44.022 271.055C42.63 270.417 41.035 269.895 39.237 269.489C37.439 269.083 35.525 268.735 33.495 268.445C31.465 268.097 29.406 267.749 27.318 267.401C25.288 267.053 23.316 266.618 21.402 266.096C18.792 265.4 16.443 264.559 14.355 263.573C12.267 262.529 10.498 261.253 9.048 259.745C7.656 258.237 6.554 256.41 5.742 254.264C4.988 252.118 4.611 249.566 4.611 246.608C4.611 244.346 4.988 242.142 5.742 239.996C6.496 237.85 7.743 235.936 9.483 234.254C11.281 232.572 13.601 231.238 16.443 230.252C19.285 229.208 22.794 228.686 26.97 228.686C30.856 228.686 34.133 229.063 36.801 229.817C39.469 230.571 41.818 231.528 43.848 232.688C45.066 233.384 46.139 233.732 47.067 233.732C47.705 233.732 48.459 233.355 49.329 232.601C50.257 231.847 50.982 231.006 51.504 230.078H56.202V252.698ZM84.5626 250.436H96.1336L95.6986 256.7C94.0746 256.352 92.3346 256.12 90.4786 256.004C88.6806 255.83 86.7086 255.743 84.5626 255.743V286.106C84.5626 288.716 85.8386 290.021 88.3906 290.021C89.7246 290.021 90.6236 289.673 91.0876 288.977C91.6096 288.223 91.8706 287.266 91.8706 286.106V281.06H96.1336V284.888C96.1336 286.454 95.9596 287.875 95.6116 289.151C95.3216 290.427 94.7416 291.529 93.8716 292.457C93.0596 293.327 91.9576 294.023 90.5656 294.545C89.1736 295.067 87.4046 295.328 85.2586 295.328C80.7346 295.328 77.4866 294.313 75.5146 292.283C73.6006 290.253 72.6436 287.411 72.6436 283.757V255.743H65.0746V251.567C66.6986 251.451 68.2066 251.219 69.5986 250.871C71.0486 250.523 72.2956 249.914 73.3396 249.044C74.4416 248.174 75.2826 246.956 75.8626 245.39C76.5006 243.824 76.8196 241.794 76.8196 239.3V237.386L84.5626 236.777V250.436ZM153.348 285.845C153.348 288.455 155.639 289.76 160.221 289.76V294.719H141.516V285.845C140.704 287.121 139.718 288.368 138.558 289.586C137.456 290.746 136.151 291.79 134.643 292.718C133.193 293.588 131.54 294.284 129.684 294.806C127.886 295.328 125.885 295.589 123.681 295.589C119.099 295.589 115.706 294.574 113.502 292.544C111.298 290.514 110.196 287.208 110.196 282.626V259.31C110.196 256.7 107.673 255.395 102.627 255.395V250.436H121.767V278.798C121.767 282.452 122.26 285.062 123.246 286.628C124.29 288.136 125.943 288.89 128.205 288.89C130.989 288.89 133.57 287.817 135.948 285.671C138.326 283.525 140.182 280.77 141.516 277.406V259.397C141.516 258.063 140.907 257.077 139.689 256.439C138.471 255.743 136.557 255.395 133.947 255.395V250.436H153.348V285.845ZM214.878 285.845C214.878 288.455 217.43 289.76 222.534 289.76V294.719H206.091L205.395 287.498C204.003 290.456 201.799 292.66 198.783 294.11C195.767 295.502 192.229 296.198 188.169 296.198C185.327 296.198 182.63 295.763 180.078 294.893C177.526 294.023 175.264 292.631 173.292 290.717C171.378 288.803 169.841 286.367 168.681 283.409C167.579 280.393 167.028 276.768 167.028 272.534C167.028 268.184 167.666 264.501 168.942 261.485C170.218 258.469 171.9 256.004 173.988 254.09C176.076 252.176 178.483 250.813 181.209 250.001C183.935 249.131 186.777 248.696 189.735 248.696C192.519 248.696 195.071 249.073 197.391 249.827C199.769 250.581 201.625 251.625 202.959 252.959V236.603C202.959 233.993 200.436 232.688 195.39 232.688V227.729H214.878V285.845ZM191.736 254.351C189.474 254.351 187.531 254.786 185.907 255.656C184.283 256.526 182.949 257.744 181.905 259.31C180.919 260.876 180.165 262.761 179.643 264.965C179.179 267.111 178.947 269.489 178.947 272.099C178.947 274.709 179.179 277.087 179.643 279.233C180.165 281.379 180.919 283.235 181.905 284.801C182.949 286.367 184.283 287.585 185.907 288.455C187.531 289.325 189.474 289.76 191.736 289.76C193.998 289.76 195.912 289.325 197.478 288.455C199.044 287.585 200.291 286.367 201.219 284.801C202.205 283.235 202.901 281.379 203.307 279.233C203.771 277.087 204.003 274.709 204.003 272.099C204.003 269.489 203.771 267.111 203.307 264.965C202.901 262.761 202.205 260.876 201.219 259.31C200.291 257.744 199.044 256.526 197.478 255.656C195.912 254.786 193.998 254.351 191.736 254.351ZM248.62 285.845C248.504 288.455 251.027 289.76 256.189 289.76V294.719H229.219V289.76C234.207 289.76 236.701 288.455 236.701 285.845V259.397C236.701 256.729 234.207 255.395 229.219 255.395V250.436H248.62V285.845ZM249.664 235.82C249.664 237.85 248.939 239.619 247.489 241.127C246.097 242.577 244.357 243.302 242.269 243.302C241.225 243.302 240.239 243.099 239.311 242.693C238.441 242.287 237.658 241.765 236.962 241.127C236.324 240.431 235.802 239.648 235.396 238.778C234.99 237.85 234.787 236.864 234.787 235.82C234.787 233.732 235.512 231.992 236.962 230.6C238.47 229.15 240.239 228.425 242.269 228.425C244.299 228.425 246.039 229.15 247.489 230.6C248.939 232.05 249.664 233.79 249.664 235.82ZM311.062 272.36C311.062 279.958 308.974 285.845 304.798 290.021C300.622 294.139 294.561 296.198 286.615 296.198C283.483 296.198 280.496 295.821 277.654 295.067C274.812 294.371 272.318 293.153 270.172 291.413C268.084 289.615 266.402 287.266 265.126 284.366C263.85 281.408 263.212 277.754 263.212 273.404C263.212 265.458 265.213 259.368 269.215 255.134C273.217 250.842 279.336 248.696 287.572 248.696C290.762 248.696 293.778 249.102 296.62 249.914C299.52 250.668 302.014 251.973 304.102 253.829C306.248 255.627 307.93 258.034 309.148 261.05C310.424 264.066 311.062 267.836 311.062 272.36ZM287.485 254.438C283.135 254.438 279.974 255.859 278.002 258.701C276.03 261.485 275.044 265.516 275.044 270.794C275.044 274.738 275.305 277.986 275.827 280.538C276.349 283.09 277.103 285.12 278.089 286.628C279.133 288.078 280.351 289.093 281.743 289.673C283.193 290.253 284.846 290.543 286.702 290.543C291.284 290.543 294.503 289.006 296.359 285.932C298.215 282.858 299.143 278.508 299.143 272.882C299.143 269.228 298.853 266.212 298.273 263.834C297.751 261.456 296.968 259.571 295.924 258.179C294.88 256.787 293.633 255.83 292.183 255.308C290.791 254.728 289.225 254.438 287.485 254.438Z"
    fill="#D4AF37"
  />

  {/* Stylized letter 'S' */}
  <path
    d="M146.809 72.2871L138.19 75.9985C136.309 71.5212 133.941 67.8541 131.084 64.9973C128.227 62.1404 125.047 59.9993 121.545 58.5739C118.043 57.1486 114.263 56.4265 110.204 56.4077C106.146 56.3889 101.93 56.9914 97.5577 58.2153C90.9542 60.0635 85.9232 62.6744 82.465 66.0479C79.0959 69.3964 78.1356 73.5622 79.5841 78.5453C80.4635 81.5707 82.1435 83.6985 84.6241 84.9287C87.0787 86.07 90.0805 86.7694 93.6293 87.027C97.1522 87.1957 101.07 87.0615 105.381 86.6244C109.782 86.1624 114.254 85.7769 118.796 85.4679C123.312 85.0699 127.817 84.9638 132.31 85.1496C136.866 85.2215 141.087 85.9647 144.972 87.3791C148.831 88.7045 152.259 90.8722 155.257 93.8821C158.229 96.803 160.491 100.933 162.043 106.272C163.595 111.611 164.003 116.5 163.267 120.94C162.621 125.355 160.977 129.327 158.336 132.857C155.695 136.386 152.191 139.436 147.823 142.005C143.456 144.575 138.372 146.671 132.571 148.295C126.682 149.943 121.357 150.712 116.596 150.601C111.951 150.554 107.609 149.893 103.571 148.618C101.655 147.999 99.9824 147.89 98.5546 148.29C97.9299 148.465 97.1423 149.407 96.1917 151.116C95.2153 152.736 94.6417 154.581 94.471 156.649L85.5027 159.159L74.8719 122.587L83.4736 119.314C85.0721 123.485 87.3127 127.044 90.1954 129.989C93.0782 132.935 96.3987 135.229 100.157 136.872C103.979 138.4 108.238 139.277 112.935 139.502C117.607 139.638 122.53 138.981 127.706 137.533C135.291 135.41 140.665 132.318 143.827 128.257C146.963 124.108 147.6 118.83 145.738 112.423C145.143 110.377 144.014 108.816 142.351 107.742C140.688 106.668 138.656 105.986 136.256 105.695C133.829 105.316 131.142 105.202 128.195 105.353C125.248 105.505 122.148 105.795 118.895 106.224C115.616 106.565 112.293 106.917 108.926 107.283C105.647 107.623 102.419 107.805 99.2414 107.828C94.9154 107.884 90.9262 107.606 87.274 106.992C83.5958 106.289 80.3051 105.094 77.4016 103.404C74.5874 101.69 72.0771 99.3618 69.8708 96.419C67.7537 93.4513 66.0355 89.6984 64.7164 85.1602C63.7076 81.6899 63.3048 78.1462 63.5078 74.5291C63.7109 70.912 64.7759 67.4385 66.7029 64.1087C68.7192 60.7539 71.6938 57.7083 75.6267 54.9717C79.5337 52.1462 84.6998 49.8342 91.1249 48.0359C97.1038 46.3625 102.314 45.5298 106.755 45.5376C111.196 45.5455 115.237 46.0022 118.878 46.9077C121.062 47.451 122.868 47.5229 124.296 47.1232C125.278 46.8485 126.27 45.9454 127.272 44.414C128.363 42.8576 129.104 41.2551 129.493 39.6066L136.721 37.5835L146.809 72.2871Z"
    fill="#D4AF37"
  />

  {/* Stylized letter 'K' */}
  <path
    d="M242.963 118.721C239.606 118.014 236.385 117.911 233.301 118.412C230.307 118.935 227.392 119.906 224.558 121.325L196.551 135.495L217.488 194.805C218.418 197.6 219.695 199.763 221.32 201.295C223.034 202.848 225.469 204.001 228.624 204.755L232.409 205.66L230.467 213.485L177.607 200.85L179.549 193.026L189.283 195.352C190.815 195.719 191.963 195.707 192.728 195.318C193.493 194.93 193.987 194.285 194.21 193.386C194.501 192.217 194.374 190.805 193.83 189.151L178.903 144.282L155.553 156.422L149.86 179.356C148.833 183.493 152.33 186.52 160.352 188.437L158.409 196.262L113.661 185.566L115.603 177.742C123.625 179.659 128.149 178.549 129.176 174.412L147.058 102.372C148.085 98.2352 144.588 95.208 136.567 93.2908L138.542 85.3313L183.291 96.0269L181.315 103.986C173.294 102.069 168.77 103.179 167.743 107.316L158.801 143.336L206.075 119.051C207.92 118.158 209.043 116.902 209.445 115.283C209.758 114.024 209.519 112.871 208.728 111.825C208.028 110.8 206.686 110.05 204.703 109.577L198.755 108.155L200.731 100.195L244.938 110.762L242.963 118.721Z"
    fill="#D4AF37"
  />
</svg>

